<svg width="15" height="15" viewBox="0 0 15 15" fill="none" xmlns="http://www.w3.org/2000/svg">
<path d="M7.20866 0C11.1899 0 14.4173 3.15614 14.4173 7.04945C14.4173 8.88679 13.6985 10.56 12.5209 11.8147L14.8369 14.0727C15.054 14.2845 15.0544 14.6282 14.8379 14.8405C14.6411 15.0335 14.3327 15.0514 14.1151 14.894L14.0528 14.8415L11.7095 12.5563C10.4761 13.5216 8.91132 14.0989 7.20866 14.0989C3.22742 14.0989 0 10.9427 0 7.04945C0 3.15614 3.22742 0 7.20866 0ZM7.20866 1.0858C3.84064 1.0858 1.11033 3.75582 1.11033 7.04945C1.11033 10.3431 3.84064 13.0131 7.20866 13.0131C10.5767 13.0131 13.307 10.3431 13.307 7.04945C13.307 3.75582 10.5767 1.0858 7.20866 1.0858Z" fill="white"/>
</svg>
