<svg xmlns="http://www.w3.org/2000/svg" width="16" height="16" fill="none"><path fill="#1A1A1A" fill-rule="evenodd" d="M2.995 2.995A5.007 5.007 0 001.53 6.547a5.007 5.007 0 005.018 5.018 5.007 5.007 0 005.018-5.018A5.007 5.007 0 006.547 1.53a5.034 5.034 0 00-3.553 1.466zm9.011 7.194l3.616 3.616c.5.499.5 1.312 0 1.817-.499.5-1.312.5-1.817 0l-3.616-3.616a6.559 6.559 0 01-3.642 1.095 6.542 6.542 0 01-4.64-1.914A6.548 6.548 0 010 6.554c0-1.741.678-3.405 1.914-4.64A6.527 6.527 0 016.547 0a6.53 6.53 0 016.554 6.554c0 1.292-.378 2.56-1.095 3.635z" clip-rule="evenodd"/></svg>